# xmcd
#
# Track frame offsets:
#	150
#	18885
#	44220
#	57627
#	71035
#	89747
#	109627
#	125192
#	144052
#	162102
#	182372
#	200397
#	218755
#	242927
#	254642
#	274927
#
# Disc length: 3945 seconds
#
# Revision: 0
# Processed by: cddbd v1.5.1PL0 Copyright (c) Steve Scherf et al.
# Submitted via: dBpowerAMP V4.0
#
DISCID=f70f6710
DTITLE=Various Artist - Steeldrums for Lovers
DYEAR=1900
DGENRE=Calypso
TTITLE0=Margaritaville
TTITLE1=Besame Mucho
TTITLE2=El Bimbo
TTITLE3=Ob-La-Di, Ob-La-Da
TTITLE4=Fantasy
TTITLE5=Bailamos
TTITLE6=Rhythm Divine
TTITLE7=Honeymoon Couple
TTITLE8=Don't Worry Be Happy
TTITLE9=Wake Up With You
TTITLE10=And I Love Her
TTITLE11=Love Me With All Your Heart
TTITLE12=Heal The World
TTITLE13=Autumn Leaves
TTITLE14=Samba D' Orfeu
TTITLE15=Watch What Happens
EXTD=
EXTT0=
EXTT1=
EXTT2=
EXTT3=
EXTT4=
EXTT5=
EXTT6=
EXTT7=
EXTT8=
EXTT9=
EXTT10=
EXTT11=
EXTT12=
EXTT13=
EXTT14=
EXTT15=
PLAYORDER=
